<svg xmlns="http://www.w3.org/2000/svg" viewBox="0 0 64 64" role="img" aria-label="INSARA Foundation">
  <circle cx="32" cy="32" r="31" fill="#ffffff" stroke="#007A4D" stroke-width="1.5"/>
  <circle cx="32" cy="32" r="28" fill="none" stroke="#007A4D" stroke-width="1"/>
  <!-- hands -->
  <path d="M14 42c4-6 10-8 18-8s14 2 18 8" fill="none" stroke="#007A4D" stroke-width="2.2" stroke-linecap="round"/>
  <path d="M18 44c3-4 8-5 14-5s11 1 14 5" fill="#007A4D" opacity=".15"/>
  <!-- figures -->
  <circle cx="24" cy="26" r="4.5" fill="#8FA88F"/>
  <path d="M24 30v8" stroke="#8FA88F" stroke-width="2.5" stroke-linecap="round"/>
  <path d="M24 34l-5 6M24 34l5 6" stroke="#8FA88F" stroke-width="2.2" stroke-linecap="round"/>
  <circle cx="32" cy="22" r="5" fill="#007A4D"/>
  <path d="M32 27v10" stroke="#007A4D" stroke-width="2.8" stroke-linecap="round"/>
  <path d="M32 31l-6 8M32 31l6 8" stroke="#007A4D" stroke-width="2.5" stroke-linecap="round"/>
  <circle cx="40" cy="26" r="4.5" fill="#C4A574"/>
  <path d="M40 30v8" stroke="#C4A574" stroke-width="2.5" stroke-linecap="round"/>
  <path d="M40 34l-5 6M40 34l5 6" stroke="#C4A574" stroke-width="2.2" stroke-linecap="round"/>
  <!-- seedling -->
  <path d="M32 40c0-3 1.5-4.5 0-7" fill="none" stroke="#007A4D" stroke-width="1.5" stroke-linecap="round"/>
  <path d="M32 35c-2.5-1-3.5-2.5-3-4.5" fill="none" stroke="#007A4D" stroke-width="1.2" stroke-linecap="round"/>
  <path d="M32 35c2.5-1 3.5-2.5 3-4.5" fill="none" stroke="#007A4D" stroke-width="1.2" stroke-linecap="round"/>
</svg>
